<svg width="243" height="30" viewBox="0 0 243 30" fill="none" xmlns="http://www.w3.org/2000/svg">
<g clip-path="url(#clip0_2022_158)">
<path d="M15.0501 29.0928H0.442278V20.398H13.3505C13.7675 20.398 13.9065 20.1919 13.9065 19.7466V19.6402C13.9065 19.1616 13.7106 18.9888 13.3505 18.9888H7.822C2.22403 18.9888 0 16.137 0 10.7394V9.74225C0 3.48706 2.91271 1.0807 7.88518 1.0807H21.0208V9.98156H9.33206C8.88978 9.98156 8.69392 10.2541 8.69392 10.633V10.7726C8.69392 11.1847 8.83292 11.5304 9.33206 11.5304H15.4987C20.1047 11.5304 22.5246 14.6214 22.5246 18.7495V20.5376C22.5246 25.111 20.4711 29.0928 15.0564 29.0928H15.0501Z" fill="#E60012"/>
<path d="M36.6775 29.126H24.5464L24.5211 1.0807H37.1576C43.7918 1.0807 46.3507 6.03301 46.3507 12.2816V16.7486C46.3507 24.6191 43.7665 29.1194 36.6901 29.1194L36.6775 29.126ZM38.0422 12.8001C38.0422 11.5304 37.4293 10.2209 35.597 10.2209H32.7096V19.8795H35.3759C37.6252 19.8795 38.0422 18.5035 38.0422 17.0278V12.8001Z" fill="#E60012"/>
<path d="M62.2537 11.5636C62.2537 10.3937 61.8367 9.77549 60.6173 9.77549H58.3427C56.6747 9.77549 56.1503 10.4602 56.1503 12.9396V17.2671C56.1503 20.0856 56.8706 20.3914 58.6207 20.3914H61.1228C61.9821 20.3914 62.3169 19.7732 62.3169 19.1217V18.4703H58.2353V12.6605H70.4232V18.8093C70.4232 26.0284 68.3698 29.2922 62.3169 29.2922H57.2623C49.8194 29.2922 47.9619 25.9619 47.9619 17.2671V12.9396C47.9619 4.17839 49.5983 0.914516 56.9843 0.914516H61.8431C68.4772 0.914516 70.5054 3.76625 70.5054 11.5703H62.2601L62.2537 11.5636Z" fill="#E60012"/>
<path d="M87.0213 29.126H72.78V22.0133H84.0833C84.7215 22.0133 84.8352 21.8405 84.8352 21.4948V21.3885C84.8352 21.0096 84.6393 20.8035 84.0833 20.8035H78.2832C74.2268 20.8035 72.4261 18.9489 72.4261 14.8275V14.4154C72.4261 9.77548 74.7892 8.333 78.2832 8.333H92.7204V14.555H81.695C81.1137 14.555 80.8926 14.761 80.8926 15.1399V15.2064C80.8926 15.5521 81.1137 15.7581 81.695 15.7581H87.0276C91.1661 15.7581 93.3332 17.2737 93.3332 21.6012V22.0798C93.3332 26.2344 91.8611 29.126 87.0276 29.126H87.0213Z" fill="#E60012"/>
<path d="M101.25 28.674H96.1449V19.1084H101.534C110.31 19.1084 113.539 17.0344 113.539 11.2246V9.57606H94.9823V0.482433H122.814V10.9055C122.814 23.3029 114.417 28.6807 101.25 28.6807V28.674Z" fill="#E60012"/>
<path d="M127.041 28.1821V20.7969H134.844V17.0078C134.844 14.3356 134.718 13.6443 133.682 13.3451H127.256V6.02636H149.414V13.3451H141.737C142.3 14.2027 142.363 15.2263 142.363 16.4428V20.7969H149.572V28.1821H127.035H127.041Z" fill="#E60012"/>
<path d="M170.264 24.5859C166.379 26.9922 161.172 28.6075 154.248 28.6075V18.9156C166.625 18.9156 170.106 12.4876 170.106 9.78213V9.09081H155.252V0.31625H179.761V7.56855C179.761 10.6995 178.946 14.2957 177 17.6593C178.819 18.4171 180.79 18.7162 183.141 18.7162V28.3151C176.09 28.3151 173.803 27.1584 170.258 24.5859H170.264Z" fill="#E60012"/>
<path d="M195.373 9.15728H192.005V9.80873H200.011V14.2558H186.995V5.6674H194.684C195.127 5.6674 195.291 5.48127 195.291 5.20208V5.13561C195.291 4.84312 195.076 4.70353 194.684 4.70353H186.995V0.276367H195.373C198.93 0.276367 200.352 1.95816 200.352 4.84977V5.15555C200.352 7.26942 199.29 9.15728 195.373 9.15728Z" fill="#E60012"/>
<path d="M208.673 14.4488H206.923C202.563 14.4488 201.274 13.126 201.274 8.50602V6.17279C201.274 1.34678 202.633 0.110371 206.879 0.110371H208.755C212.95 0.110371 214.34 1.34678 214.34 6.17279V8.50602C214.34 13.126 213.033 14.4488 208.673 14.4488ZM209.88 6.16614C209.88 4.92973 209.437 4.58406 208.755 4.58406H206.879C206.064 4.58406 205.703 4.94302 205.703 6.16614V8.49938C205.703 9.63608 206 9.94186 206.929 9.94186H208.679C209.482 9.94186 209.886 9.44331 209.886 8.49938V6.16614H209.88Z" fill="#E60012"/>
<path d="M223.944 9.15728H220.577V9.80873H228.582V14.2558H215.566V5.6674H223.255C223.698 5.6674 223.862 5.48127 223.862 5.20208V5.13561C223.862 4.84312 223.647 4.70353 223.255 4.70353H215.566V0.276367H223.944C227.501 0.276367 228.923 1.95816 228.923 4.84977V5.15555C228.923 7.26942 227.861 9.15728 223.944 9.15728Z" fill="#E60012"/>
<path d="M238.527 14.2824H229.839V9.72896H237.566C237.907 9.72896 238.009 9.58936 238.009 9.33676V9.2304C238.009 8.97115 237.876 8.83821 237.566 8.83821H231.539C230.3 8.83821 229.839 8.20006 229.839 6.93041V0.276367H242.45V4.47087H234.641V4.90295C234.641 5.07578 234.755 5.14226 234.932 5.14226H238.527C242.008 5.14226 243 6.65121 243 9.2304V10.0347C243 12.9529 241.793 14.2758 238.527 14.2758V14.2824Z" fill="#E60012"/>
<path d="M238.35 29.5116H186.894V15.7581H238.35L242.393 22.5052L238.35 29.5116Z" fill="#E60012"/>
<path d="M197.395 25.6164V24.6924H195.973V25.6164H193.932V21.8606C193.932 19.9927 194.343 19.3545 196.232 19.3545H197.028C198.918 19.3545 199.423 19.9927 199.423 21.8606V25.6164H197.395ZM197.395 21.8606C197.395 21.4684 197.338 21.3554 197.009 21.3554H196.359C196.036 21.3554 195.98 21.4684 195.98 21.8606V22.7247H197.401V21.8606H197.395Z" fill="white"/>
<path d="M203.359 25.7159H203.024C200.958 25.7159 200.219 25.0445 200.219 22.9772V22.1263C200.219 20.1321 200.895 19.3477 202.999 19.3477H203.328C205.242 19.3477 206.038 20.1587 206.038 21.6411V21.9402H203.985V21.8604C203.985 21.5414 203.783 21.3885 203.334 21.3885H203.107C202.538 21.3885 202.367 21.6477 202.367 22.133V22.9839C202.367 23.5289 202.677 23.7018 203.132 23.7018H203.372C203.865 23.7018 204.023 23.4558 204.023 23.17V23.0038H206.057V23.3229C206.057 25.0047 205.267 25.7292 203.372 25.7292L203.359 25.7159Z" fill="white"/>
<path d="M210.663 21.4683V25.6162H208.477V21.4683H206.651V19.4607H212.388V21.4683H210.663Z" fill="white"/>
<path d="M213.228 25.6162V19.4674H215.433V25.6162H213.228Z" fill="white"/>
<path d="M219.73 25.6428H218.978C216.918 25.6428 216.438 25.0711 216.438 22.9971V22.0732C216.438 20.0058 216.918 19.4275 218.978 19.4275H219.73C221.644 19.4275 222.301 20.0058 222.301 22.0732V22.9971C222.301 25.0711 221.783 25.6428 219.73 25.6428ZM220.166 22.1064C220.166 21.6743 220.014 21.3951 219.49 21.3951H219.212C218.788 21.3951 218.536 21.568 218.536 22.1064V22.9174C218.536 23.4425 218.687 23.6353 219.212 23.6353H219.49C220.014 23.6353 220.166 23.3428 220.166 22.9174V22.1064Z" fill="white"/>
<path d="M227.609 25.6827C226.686 25.6827 226.2 25.018 225.89 24.1538L225.201 22.2194C225.189 22.1529 225.164 22.1263 225.145 22.1263C225.113 22.1263 225.1 22.1529 225.1 22.226V25.6162H223.123V21.2888C223.123 20.0524 223.818 19.4275 224.784 19.4275C225.814 19.4275 226.212 20.0922 226.408 20.7038L227.122 22.8841C227.135 22.9639 227.154 22.9905 227.192 22.9905C227.217 22.9905 227.249 22.9706 227.249 22.8841V19.4873H229.233V23.7882C229.233 25.1044 228.607 25.6893 227.602 25.6893L227.609 25.6827Z" fill="white"/>
<path d="M232.183 23.7217H230.73L230.395 20.4379V19.3876H232.524V20.4379L232.189 23.7217H232.183ZM230.452 25.6162V23.9677H232.449V25.6162H230.452Z" fill="white"/>
</g>
<defs>
<clipPath id="clip0_2022_158">
<rect width="243" height="29.4136" fill="white" transform="translate(0 0.100784)"/>
</clipPath>
</defs>
</svg>
