<svg width="308" height="112" viewBox="0 0 308 112" fill="none" xmlns="http://www.w3.org/2000/svg">
<path d="M117.2 48.4048H130.86V50.7448H117.2V48.4048ZM122.64 33.3448H125.12V49.8448H122.64V33.3448ZM116.02 43.4048H118.46V51.9248H116.02V43.4048ZM129.58 43.4048H132.08V51.9048H129.58V43.4048ZM116.8 35.0248H119.2V39.9848H128.76V35.0048H131.28V42.3248H116.8V35.0248ZM139.42 40.7648H152.26V42.7648H139.42V40.7648ZM138.88 44.1448H153.14V46.1648H138.88V44.1448ZM141.94 39.1248H144.14V45.0648H141.94V39.1248ZM140.94 44.8648H143.14V49.9248H140.94V44.8648ZM147.14 39.1248H149.38V45.0448H147.14V39.1248ZM136.58 33.9848H139.02V39.9248C139.02 40.8048 138.987 41.7714 138.92 42.8248C138.867 43.8648 138.753 44.9314 138.58 46.0248C138.42 47.1181 138.18 48.1781 137.86 49.2048C137.54 50.2314 137.113 51.1514 136.58 51.9648C136.433 51.8448 136.227 51.7048 135.96 51.5448C135.693 51.3848 135.42 51.2248 135.14 51.0648C134.873 50.9181 134.633 50.8114 134.42 50.7448C134.927 49.9714 135.327 49.1248 135.62 48.2048C135.913 47.2848 136.127 46.3448 136.26 45.3848C136.393 44.4114 136.48 43.4581 136.52 42.5248C136.56 41.5914 136.58 40.7248 136.58 39.9248V33.9848ZM138.08 33.9848H152.08V39.4648H138.08V37.4248H149.66V36.0248H138.08V33.9848ZM138.88 49.4648C139.547 49.3848 140.3 49.2914 141.14 49.1848C141.98 49.0781 142.867 48.9648 143.8 48.8448C144.747 48.7114 145.687 48.5781 146.62 48.4448L146.72 50.5048C145.413 50.7181 144.1 50.9248 142.78 51.1248C141.46 51.3248 140.273 51.5048 139.22 51.6648L138.88 49.4648ZM146.56 44.9648C147.093 46.2581 147.927 47.3314 149.06 48.1848C150.193 49.0381 151.633 49.6314 153.38 49.9648C153.127 50.1914 152.86 50.4981 152.58 50.8848C152.313 51.2848 152.107 51.6381 151.96 51.9448C150.067 51.4648 148.527 50.6781 147.34 49.5848C146.153 48.4914 145.233 47.0981 144.58 45.4048L146.56 44.9648ZM150.64 45.8848L152.44 47.1248C151.907 47.5114 151.327 47.8848 150.7 48.2448C150.073 48.5914 149.5 48.8848 148.98 49.1248L147.46 47.9848C147.793 47.8114 148.153 47.6048 148.54 47.3648C148.927 47.1114 149.307 46.8581 149.68 46.6048C150.053 46.3514 150.373 46.1114 150.64 45.8848ZM162.74 42.0248L164.56 40.7248C165 41.1114 165.467 41.5381 165.96 42.0048C166.467 42.4714 166.967 42.9514 167.46 43.4448C167.953 43.9248 168.413 44.3914 168.84 44.8448C169.267 45.2981 169.627 45.7114 169.92 46.0848L167.94 47.6448C167.673 47.2714 167.333 46.8514 166.92 46.3848C166.52 45.9181 166.08 45.4314 165.6 44.9248C165.133 44.4048 164.647 43.9048 164.14 43.4248C163.647 42.9314 163.18 42.4648 162.74 42.0248ZM162.78 33.1248H165.26V37.9248C165.26 38.5914 165.213 39.2848 165.12 40.0048C165.04 40.7114 164.887 41.4314 164.66 42.1648C164.447 42.8848 164.133 43.5981 163.72 44.3048C163.32 44.9981 162.8 45.6648 162.16 46.3048C161.533 46.9314 160.767 47.5181 159.86 48.0648C159.74 47.8914 159.58 47.6914 159.38 47.4648C159.18 47.2381 158.967 47.0181 158.74 46.8048C158.527 46.5781 158.32 46.3914 158.12 46.2448C158.987 45.8048 159.707 45.3181 160.28 44.7848C160.853 44.2514 161.307 43.6981 161.64 43.1248C161.973 42.5381 162.22 41.9448 162.38 41.3448C162.54 40.7448 162.647 40.1581 162.7 39.5848C162.753 38.9981 162.78 38.4448 162.78 37.9248V33.1248ZM155.78 36.4648H170.96V38.8048H158.18V51.9648H155.78V36.4648ZM169.92 36.4648H172.3V49.1848C172.3 49.8248 172.22 50.3248 172.06 50.6848C171.9 51.0581 171.607 51.3381 171.18 51.5248C170.767 51.7114 170.24 51.8248 169.6 51.8648C168.96 51.9181 168.193 51.9448 167.3 51.9448C167.273 51.7181 167.213 51.4581 167.12 51.1648C167.04 50.8714 166.947 50.5848 166.84 50.3048C166.733 50.0248 166.62 49.7781 166.5 49.5648C166.9 49.5781 167.3 49.5914 167.7 49.6048C168.1 49.6048 168.453 49.6048 168.76 49.6048C169.08 49.6048 169.3 49.6048 169.42 49.6048C169.607 49.5914 169.733 49.5581 169.8 49.5048C169.88 49.4381 169.92 49.3181 169.92 49.1448V36.4648ZM180.36 37.3048L182.66 38.0848C182.247 38.6848 181.76 39.2714 181.2 39.8448C180.64 40.4048 180.047 40.9314 179.42 41.4248C178.793 41.9048 178.167 42.3181 177.54 42.6648C177.433 42.4914 177.28 42.2848 177.08 42.0448C176.88 41.8048 176.673 41.5648 176.46 41.3248C176.247 41.0848 176.06 40.8914 175.9 40.7448C176.767 40.3581 177.6 39.8581 178.4 39.2448C179.2 38.6314 179.853 37.9848 180.36 37.3048ZM185.22 38.6648L186.92 37.2648C187.48 37.5981 188.073 37.9781 188.7 38.4048C189.34 38.8314 189.953 39.2648 190.54 39.7048C191.127 40.1314 191.6 40.5381 191.96 40.9248L190.14 42.5048C189.807 42.1314 189.367 41.7181 188.82 41.2648C188.273 40.8114 187.68 40.3581 187.04 39.9048C186.413 39.4381 185.807 39.0248 185.22 38.6648ZM184.08 42.0048C183.56 42.6848 182.88 43.3781 182.04 44.0848C181.213 44.7914 180.293 45.4648 179.28 46.1048C178.28 46.7448 177.247 47.3048 176.18 47.7848C176.087 47.5848 175.96 47.3648 175.8 47.1248C175.653 46.8714 175.493 46.6248 175.32 46.3848C175.147 46.1314 174.98 45.9181 174.82 45.7448C175.927 45.3181 176.987 44.7781 178 44.1248C179.013 43.4714 179.933 42.7648 180.76 42.0048C181.587 41.2448 182.247 40.5114 182.74 39.8048H185.2C185.733 40.4581 186.32 41.0714 186.96 41.6448C187.613 42.2181 188.293 42.7448 189 43.2248C189.707 43.6914 190.44 44.1114 191.2 44.4848C191.96 44.8581 192.727 45.1714 193.5 45.4248C193.22 45.7314 192.947 46.0848 192.68 46.4848C192.427 46.8848 192.2 47.2581 192 47.6048C191.293 47.2981 190.56 46.9314 189.8 46.5048C189.053 46.0781 188.32 45.6181 187.6 45.1248C186.893 44.6314 186.233 44.1181 185.62 43.5848C185.02 43.0514 184.507 42.5248 184.08 42.0048ZM178.38 45.0048H189.76V51.8848H187.32V47.1248H180.7V51.9248H178.38V45.0048ZM179.46 49.2448H188.54V51.3648H179.46V49.2448ZM182.7 33.1248H185.18V35.9848H182.7V33.1248ZM175.42 34.7248H192.58V39.0648H190.14V36.9048H177.78V39.0648H175.42V34.7248ZM86.8795 68.1648C86.3062 68.1648 85.7929 68.2781 85.3395 68.5048C84.8995 68.7314 84.5262 69.0581 84.2195 69.4848C83.9129 69.8981 83.6795 70.4048 83.5195 71.0048C83.3729 71.6048 83.2995 72.2781 83.2995 73.0248C83.2995 74.0381 83.4195 74.9048 83.6595 75.6248C83.9129 76.3314 84.3062 76.8714 84.8395 77.2448C85.3729 77.6181 86.0529 77.8048 86.8795 77.8048C87.4662 77.8048 88.0462 77.7381 88.6195 77.6048C89.2062 77.4714 89.8395 77.2848 90.5195 77.0448V79.5848C89.8929 79.8381 89.2729 80.0248 88.6595 80.1448C88.0462 80.2648 87.3595 80.3248 86.5995 80.3248C85.1329 80.3248 83.9195 80.0248 82.9595 79.4248C82.0129 78.8114 81.3129 77.9581 80.8595 76.8648C80.4062 75.7581 80.1795 74.4714 80.1795 73.0048C80.1795 71.9248 80.3262 70.9381 80.6195 70.0448C80.9129 69.1381 81.3395 68.3581 81.8995 67.7048C82.4729 67.0514 83.1729 66.5448 83.9995 66.1848C84.8395 65.8248 85.7995 65.6448 86.8795 65.6448C87.5862 65.6448 88.2929 65.7381 88.9995 65.9248C89.7195 66.0981 90.4062 66.3381 91.0595 66.6448L90.0795 69.1048C89.5462 68.8514 89.0062 68.6314 88.4595 68.4448C87.9262 68.2581 87.3995 68.1648 86.8795 68.1648ZM106.123 72.9648C106.123 74.0714 105.983 75.0781 105.703 75.9848C105.437 76.8781 105.023 77.6514 104.463 78.3048C103.917 78.9581 103.21 79.4581 102.343 79.8048C101.49 80.1514 100.483 80.3248 99.3233 80.3248C98.1633 80.3248 97.1499 80.1514 96.2833 79.8048C95.4299 79.4448 94.7233 78.9448 94.1633 78.3048C93.6166 77.6514 93.2033 76.8714 92.9233 75.9648C92.6566 75.0581 92.5233 74.0514 92.5233 72.9448C92.5233 71.4648 92.7633 70.1781 93.2433 69.0848C93.7366 67.9914 94.4833 67.1448 95.4833 66.5448C96.4966 65.9314 97.7833 65.6248 99.3433 65.6248C100.89 65.6248 102.163 65.9314 103.163 66.5448C104.163 67.1448 104.903 67.9981 105.383 69.1048C105.877 70.1981 106.123 71.4848 106.123 72.9648ZM95.7033 72.9648C95.7033 73.9648 95.8299 74.8248 96.0833 75.5448C96.3366 76.2648 96.7299 76.8181 97.2633 77.2048C97.7966 77.5914 98.4833 77.7848 99.3233 77.7848C100.19 77.7848 100.883 77.5914 101.403 77.2048C101.937 76.8181 102.323 76.2648 102.563 75.5448C102.817 74.8248 102.943 73.9648 102.943 72.9648C102.943 71.4581 102.663 70.2781 102.103 69.4248C101.543 68.5714 100.623 68.1448 99.3433 68.1448C98.4899 68.1448 97.7966 68.3381 97.2633 68.7248C96.7299 69.1114 96.3366 69.6648 96.0833 70.3848C95.8299 71.1048 95.7033 71.9648 95.7033 72.9648ZM115.121 80.1248L111.681 68.9248H111.601C111.615 69.1914 111.635 69.5914 111.661 70.1248C111.688 70.6581 111.715 71.2314 111.741 71.8448C111.768 72.4448 111.781 72.9914 111.781 73.4848V80.1248H109.081V65.8448H113.201L116.581 76.7648H116.641L120.221 65.8448H124.341V80.1248H121.521V73.3648C121.521 72.9114 121.528 72.3914 121.541 71.8048C121.568 71.2181 121.588 70.6648 121.601 70.1448C121.628 69.6114 121.648 69.2114 121.661 68.9448H121.581L117.901 80.1248H115.121ZM133.288 80.1248H126.788V78.4048L128.528 77.6048V68.3648L126.788 67.5648V65.8448H133.288V67.5648L131.548 68.3648V77.6048L133.288 78.4048V80.1248ZM148.382 80.1248H144.542L138.322 69.3248H138.242C138.255 69.6581 138.269 69.9981 138.282 70.3448C138.295 70.6781 138.309 71.0181 138.322 71.3648C138.349 71.6981 138.369 72.0381 138.382 72.3848C138.395 72.7181 138.409 73.0581 138.422 73.4048V80.1248H135.722V65.8448H139.542L145.742 76.5448H145.802C145.789 76.2114 145.775 75.8848 145.762 75.5648C145.749 75.2314 145.735 74.9048 145.722 74.5848C145.722 74.2514 145.715 73.9248 145.702 73.6048C145.689 73.2714 145.675 72.9381 145.662 72.6048V65.8448H148.382V80.1248ZM157.411 72.1048H163.071V79.5048C162.325 79.7581 161.545 79.9581 160.731 80.1048C159.931 80.2514 159.018 80.3248 157.991 80.3248C156.578 80.3248 155.371 80.0448 154.371 79.4848C153.385 78.9248 152.631 78.0981 152.111 77.0048C151.605 75.9114 151.351 74.5648 151.351 72.9648C151.351 71.4714 151.638 70.1781 152.211 69.0848C152.798 67.9914 153.645 67.1448 154.751 66.5448C155.858 65.9448 157.211 65.6448 158.811 65.6448C159.571 65.6448 160.318 65.7248 161.051 65.8848C161.785 66.0448 162.451 66.2581 163.051 66.5248L162.051 68.9448C161.611 68.7181 161.111 68.5314 160.551 68.3848C159.991 68.2381 159.405 68.1648 158.791 68.1648C157.911 68.1648 157.145 68.3648 156.491 68.7648C155.851 69.1648 155.351 69.7314 154.991 70.4648C154.645 71.1848 154.471 72.0381 154.471 73.0248C154.471 73.9581 154.598 74.7848 154.851 75.5048C155.105 76.2248 155.505 76.7914 156.051 77.2048C156.598 77.6048 157.311 77.8048 158.191 77.8048C158.485 77.8048 158.738 77.7981 158.951 77.7848C159.178 77.7581 159.385 77.7314 159.571 77.7048C159.758 77.6648 159.938 77.6314 160.111 77.6048V74.6248H157.411V72.1048ZM180.079 76.1648C180.079 77.0048 179.873 77.7381 179.459 78.3648C179.046 78.9914 178.446 79.4781 177.659 79.8248C176.886 80.1581 175.939 80.3248 174.819 80.3248C174.326 80.3248 173.839 80.2914 173.359 80.2248C172.893 80.1581 172.439 80.0648 171.999 79.9448C171.573 79.8114 171.166 79.6514 170.779 79.4648V76.6448C171.459 76.9381 172.159 77.2114 172.879 77.4648C173.613 77.7048 174.339 77.8248 175.059 77.8248C175.553 77.8248 175.946 77.7581 176.239 77.6248C176.546 77.4914 176.766 77.3114 176.899 77.0848C177.046 76.8581 177.119 76.5981 177.119 76.3048C177.119 75.9448 176.993 75.6381 176.739 75.3848C176.499 75.1314 176.173 74.8981 175.759 74.6848C175.346 74.4581 174.873 74.2181 174.339 73.9648C174.006 73.8048 173.646 73.6181 173.259 73.4048C172.873 73.1781 172.499 72.9048 172.139 72.5848C171.793 72.2514 171.506 71.8514 171.279 71.3848C171.053 70.9181 170.939 70.3581 170.939 69.7048C170.939 68.8514 171.133 68.1248 171.519 67.5248C171.919 66.9114 172.479 66.4448 173.199 66.1248C173.933 65.8048 174.793 65.6448 175.779 65.6448C176.526 65.6448 177.233 65.7314 177.899 65.9048C178.579 66.0781 179.286 66.3248 180.019 66.6448L179.039 69.0048C178.386 68.7381 177.799 68.5314 177.279 68.3848C176.759 68.2381 176.226 68.1648 175.679 68.1648C175.306 68.1648 174.986 68.2248 174.719 68.3448C174.453 68.4648 174.246 68.6314 174.099 68.8448C173.966 69.0581 173.899 69.3114 173.899 69.6048C173.899 69.9381 173.999 70.2248 174.199 70.4648C174.399 70.6914 174.699 70.9114 175.099 71.1248C175.499 71.3381 175.999 71.5914 176.599 71.8848C177.333 72.2314 177.953 72.5914 178.459 72.9648C178.979 73.3381 179.379 73.7781 179.659 74.2848C179.939 74.7914 180.079 75.4181 180.079 76.1648ZM195.635 72.9648C195.635 74.0714 195.495 75.0781 195.215 75.9848C194.948 76.8781 194.535 77.6514 193.975 78.3048C193.428 78.9581 192.722 79.4581 191.855 79.8048C191.002 80.1514 189.995 80.3248 188.835 80.3248C187.675 80.3248 186.662 80.1514 185.795 79.8048C184.942 79.4448 184.235 78.9448 183.675 78.3048C183.128 77.6514 182.715 76.8714 182.435 75.9648C182.168 75.0581 182.035 74.0514 182.035 72.9448C182.035 71.4648 182.275 70.1781 182.755 69.0848C183.248 67.9914 183.995 67.1448 184.995 66.5448C186.008 65.9314 187.295 65.6248 188.855 65.6248C190.402 65.6248 191.675 65.9314 192.675 66.5448C193.675 67.1448 194.415 67.9981 194.895 69.1048C195.388 70.1981 195.635 71.4848 195.635 72.9648ZM185.215 72.9648C185.215 73.9648 185.342 74.8248 185.595 75.5448C185.848 76.2648 186.242 76.8181 186.775 77.2048C187.308 77.5914 187.995 77.7848 188.835 77.7848C189.702 77.7848 190.395 77.5914 190.915 77.2048C191.448 76.8181 191.835 76.2648 192.075 75.5448C192.328 74.8248 192.455 73.9648 192.455 72.9648C192.455 71.4581 192.175 70.2781 191.615 69.4248C191.055 68.5714 190.135 68.1448 188.855 68.1448C188.002 68.1448 187.308 68.3381 186.775 68.7248C186.242 69.1114 185.848 69.6648 185.595 70.3848C185.342 71.1048 185.215 71.9648 185.215 72.9648ZM211.553 72.9648C211.553 74.0714 211.413 75.0781 211.133 75.9848C210.866 76.8781 210.453 77.6514 209.893 78.3048C209.346 78.9581 208.64 79.4581 207.773 79.8048C206.92 80.1514 205.913 80.3248 204.753 80.3248C203.593 80.3248 202.58 80.1514 201.713 79.8048C200.86 79.4448 200.153 78.9448 199.593 78.3048C199.046 77.6514 198.633 76.8714 198.353 75.9648C198.086 75.0581 197.953 74.0514 197.953 72.9448C197.953 71.4648 198.193 70.1781 198.673 69.0848C199.166 67.9914 199.913 67.1448 200.913 66.5448C201.926 65.9314 203.213 65.6248 204.773 65.6248C206.32 65.6248 207.593 65.9314 208.593 66.5448C209.593 67.1448 210.333 67.9981 210.813 69.1048C211.306 70.1981 211.553 71.4848 211.553 72.9648ZM201.133 72.9648C201.133 73.9648 201.26 74.8248 201.513 75.5448C201.766 76.2648 202.16 76.8181 202.693 77.2048C203.226 77.5914 203.913 77.7848 204.753 77.7848C205.62 77.7848 206.313 77.5914 206.833 77.2048C207.366 76.8181 207.753 76.2648 207.993 75.5448C208.246 74.8248 208.373 73.9648 208.373 72.9648C208.373 71.4581 208.093 70.2781 207.533 69.4248C206.973 68.5714 206.053 68.1448 204.773 68.1448C203.92 68.1448 203.226 68.3381 202.693 68.7248C202.16 69.1114 201.766 69.6648 201.513 70.3848C201.26 71.1048 201.133 71.9648 201.133 72.9648ZM227.171 80.1248H223.331L217.111 69.3248H217.031C217.044 69.6581 217.058 69.9981 217.071 70.3448C217.084 70.6781 217.098 71.0181 217.111 71.3648C217.138 71.6981 217.158 72.0381 217.171 72.3848C217.184 72.7181 217.198 73.0581 217.211 73.4048V80.1248H214.511V65.8448H218.331L224.531 76.5448H224.591C224.578 76.2114 224.564 75.8848 224.551 75.5648C224.538 75.2314 224.524 74.9048 224.511 74.5848C224.511 74.2514 224.504 73.9248 224.491 73.6048C224.478 73.2714 224.464 72.9381 224.451 72.6048V65.8448H227.171V80.1248Z" fill="#E60012"/>
<path d="M80.8616 101.429L19.3874 34.2191L31.7481 24.7211L80.8616 101.429Z" fill="#E60012"/>
<path d="M75.8897 104.153L26.6882 79.88L30.729 73.0003L75.8897 104.153Z" fill="#E60012"/>
<path d="M226.169 101.429L287.643 34.2191L275.282 24.7211L226.169 101.429Z" fill="#E60012"/>
<path d="M231.141 104.153L280.342 79.88L276.301 73.0003L231.141 104.153Z" fill="#E60012"/>
</svg>
