<svg width="18" height="18" viewBox="0 0 18 18" fill="none" xmlns="http://www.w3.org/2000/svg">
<path d="M6.32362 1.67053C8.3655 1.15978 9.6345 1.15978 11.6764 1.67053C12.5584 1.89103 13.6372 2.42765 14.5192 2.9294C15.2933 3.36815 15.75 4.2209 15.75 5.15578V15.1874C15.75 15.635 15.5722 16.0642 15.2557 16.3806C14.9393 16.6971 14.5101 16.8749 14.0625 16.8749H3.9375C3.71589 16.8749 3.49646 16.8313 3.29172 16.7464C3.08698 16.6616 2.90096 16.5373 2.74426 16.3806C2.58756 16.2239 2.46326 16.0379 2.37845 15.8332C2.29365 15.6284 2.25 15.409 2.25 15.1874V5.15578C2.25 4.2209 2.70675 3.36928 3.48075 2.92828C4.36275 2.42765 5.44275 1.89103 6.32362 1.67053ZM11.9486 0.579277C9.72788 0.0224023 8.27213 0.0224023 6.0525 0.579277C5.013 0.838027 3.82275 1.44103 2.925 1.95178C1.76175 2.61215 1.125 3.8609 1.125 5.15465V15.1874C1.125 15.9333 1.42132 16.6487 1.94876 17.1761C2.47621 17.7036 3.19158 17.9999 3.9375 17.9999H14.0625C14.8084 17.9999 15.5238 17.7036 16.0512 17.1761C16.5787 16.6487 16.875 15.9333 16.875 15.1874V5.15578C16.875 3.86203 16.2394 2.61328 15.075 1.95065C14.1784 1.44103 12.9881 0.840277 11.9486 0.579277ZM5.625 14.6249C5.625 14.9233 5.50647 15.2094 5.2955 15.4204C5.08452 15.6314 4.79837 15.7499 4.5 15.7499C4.20163 15.7499 3.91548 15.6314 3.7045 15.4204C3.49353 15.2094 3.375 14.9233 3.375 14.6249C3.375 14.3265 3.49353 14.0404 3.7045 13.8294C3.91548 13.6184 4.20163 13.4999 4.5 13.4999C4.79837 13.4999 5.08452 13.6184 5.2955 13.8294C5.50647 14.0404 5.625 14.3265 5.625 14.6249ZM5.625 14.6249C5.625 14.3265 5.74353 14.0404 5.9545 13.8294C6.16548 13.6184 6.45163 13.4999 6.75 13.4999C7.04837 13.4999 7.33452 13.6184 7.5455 13.8294C7.75647 14.0404 7.875 14.3265 7.875 14.6249C7.875 14.9233 7.75647 15.2094 7.5455 15.4204C7.33452 15.6314 7.04837 15.7499 6.75 15.7499C6.45163 15.7499 6.16548 15.6314 5.9545 15.4204C5.74353 15.2094 5.625 14.9233 5.625 14.6249ZM13.5 15.7499C13.7225 15.7499 13.94 15.6839 14.125 15.5603C14.31 15.4367 14.4542 15.261 14.5394 15.0554C14.6245 14.8499 14.6468 14.6237 14.6034 14.4054C14.56 14.1872 14.4528 13.9867 14.2955 13.8294C14.1382 13.6721 13.9377 13.5649 13.7195 13.5215C13.5012 13.4781 13.275 13.5004 13.0695 13.5855C12.8639 13.6707 12.6882 13.8149 12.5646 13.9999C12.441 14.1849 12.375 14.4024 12.375 14.6249C12.375 14.3265 12.2565 14.0404 12.0455 13.8294C11.8345 13.6184 11.5484 13.4999 11.25 13.4999C10.9516 13.4999 10.6655 13.6184 10.4545 13.8294C10.2435 14.0404 10.125 14.3265 10.125 14.6249C10.125 14.9233 10.2435 15.2094 10.4545 15.4204C10.6655 15.6314 10.9516 15.7499 11.25 15.7499C11.5484 15.7499 11.8345 15.6314 12.0455 15.4204C12.2565 15.2094 12.375 14.9233 12.375 14.6249C12.375 14.9233 12.4935 15.2094 12.7045 15.4204C12.9155 15.6314 13.2016 15.7499 13.5 15.7499ZM5.0625 5.6249C4.91332 5.6249 4.77024 5.68417 4.66475 5.78965C4.55926 5.89514 4.5 6.03822 4.5 6.1874V8.4374C4.5 8.58659 4.55926 8.72966 4.66475 8.83515C4.77024 8.94064 4.91332 8.9999 5.0625 8.9999H8.4375V5.6249H5.0625ZM9.5625 5.6249V8.9999H12.9375C13.0867 8.9999 13.2298 8.94064 13.3352 8.83515C13.4407 8.72966 13.5 8.58659 13.5 8.4374V6.1874C13.5 6.03822 13.4407 5.89514 13.3352 5.78965C13.2298 5.68417 13.0867 5.6249 12.9375 5.6249H9.5625ZM3.375 6.1874C3.375 5.73985 3.55279 5.31063 3.86926 4.99416C4.18572 4.67769 4.61495 4.4999 5.0625 4.4999H12.9375C13.3851 4.4999 13.8143 4.67769 14.1307 4.99416C14.4472 5.31063 14.625 5.73985 14.625 6.1874V8.4374C14.625 8.88496 14.4472 9.31418 14.1307 9.63064C13.8143 9.94711 13.3851 10.1249 12.9375 10.1249H5.0625C4.61495 10.1249 4.18572 9.94711 3.86926 9.63064C3.55279 9.31418 3.375 8.88496 3.375 8.4374V6.1874ZM7.3125 2.2499C7.16332 2.2499 7.02024 2.30917 6.91475 2.41465C6.80926 2.52014 6.75 2.66322 6.75 2.8124C6.75 2.96159 6.80926 3.10466 6.91475 3.21015C7.02024 3.31564 7.16332 3.3749 7.3125 3.3749H10.6875C10.8367 3.3749 10.9798 3.31564 11.0852 3.21015C11.1907 3.10466 11.25 2.96159 11.25 2.8124C11.25 2.66322 11.1907 2.52014 11.0852 2.41465C10.9798 2.30917 10.8367 2.2499 10.6875 2.2499H7.3125Z" fill="black"/>
</svg>
