<svg width="18" height="18" viewBox="0 0 18 18" fill="none" xmlns="http://www.w3.org/2000/svg">
<g clip-path="url(#clip0_4716_3292)">
<path d="M4.5 10.125C4.5 10.4234 4.38147 10.7095 4.1705 10.9205C3.95952 11.1315 3.67337 11.25 3.375 11.25C3.07663 11.25 2.79048 11.1315 2.5795 10.9205C2.36853 10.7095 2.25 10.4234 2.25 10.125C2.25 9.82663 2.36853 9.54048 2.5795 9.3295C2.79048 9.11853 3.07663 9 3.375 9C3.67337 9 3.95952 9.11853 4.1705 9.3295C4.38147 9.54048 4.5 9.82663 4.5 10.125ZM15.75 10.125C15.75 10.4234 15.6315 10.7095 15.4205 10.9205C15.2095 11.1315 14.9234 11.25 14.625 11.25C14.3266 11.25 14.0405 11.1315 13.8295 10.9205C13.6185 10.7095 13.5 10.4234 13.5 10.125C13.5 9.82663 13.6185 9.54048 13.8295 9.3295C14.0405 9.11853 14.3266 9 14.625 9C14.9234 9 15.2095 9.11853 15.4205 9.3295C15.6315 9.54048 15.75 9.82663 15.75 10.125ZM6.75 9C6.45163 9 6.16548 9.11853 5.9545 9.3295C5.74353 9.54048 5.625 9.82663 5.625 10.125C5.625 10.4234 5.74353 10.7095 5.9545 10.9205C6.16548 11.1315 6.45163 11.25 6.75 11.25H11.25C11.5484 11.25 11.8345 11.1315 12.0455 10.9205C12.2565 10.7095 12.375 10.4234 12.375 10.125C12.375 9.82663 12.2565 9.54048 12.0455 9.3295C11.8345 9.11853 11.5484 9 11.25 9H6.75ZM5.46975 4.8105L4.39425 6.96375C4.35028 7.05449 4.33099 7.15521 4.33834 7.25577C4.34568 7.35633 4.3794 7.45318 4.43609 7.53656C4.49278 7.61995 4.57044 7.68692 4.66126 7.73073C4.75207 7.77454 4.85283 7.79365 4.95337 7.78612C5.97712 7.704 7.59713 7.59487 9 7.59487C10.4029 7.59487 12.024 7.704 13.0466 7.78612C13.1472 7.79365 13.2479 7.77454 13.3387 7.73073C13.4296 7.68692 13.5072 7.61995 13.5639 7.53656C13.6206 7.45318 13.6543 7.35633 13.6617 7.25577C13.669 7.15521 13.6497 7.05449 13.6058 6.96375L12.5302 4.81162C12.4836 4.7181 12.4119 4.6394 12.3231 4.58436C12.2343 4.52932 12.1319 4.50011 12.0274 4.5H5.97263C5.86825 4.5 5.76593 4.52905 5.67712 4.58388C5.58831 4.63872 5.51651 4.71718 5.46975 4.8105Z" fill="black"/>
<path d="M2.83485 3.95438C3.05187 3.44813 3.41276 3.01674 3.87274 2.71375C4.33272 2.41077 4.87155 2.24951 5.42235 2.25H12.5796C13.7046 2.25 14.7216 2.9205 15.1649 3.95438L16.0559 6.03338C16.1402 6.23025 16.2921 6.39225 16.4834 6.48788C17.0459 6.76913 17.4452 7.29225 17.569 7.90763L17.9459 9.7965C17.9834 9.978 18.0017 10.1618 18.001 10.3478V10.8124C18.001 11.7281 17.5622 12.5483 16.876 13.059V15.1875C16.876 15.3367 16.8167 15.4798 16.7112 15.5852C16.6057 15.6907 16.4627 15.75 16.3135 15.75H14.0635C13.9143 15.75 13.7712 15.6907 13.6657 15.5852C13.5602 15.4798 13.501 15.3367 13.501 15.1875V13.6823C12.0475 13.7363 10.4129 13.7813 9.00098 13.7813C7.5891 13.7813 5.95448 13.7363 4.50098 13.6823V15.1875C4.50098 15.3367 4.44171 15.4798 4.33622 15.5852C4.23074 15.6907 4.08766 15.75 3.93848 15.75H1.68848C1.53929 15.75 1.39622 15.6907 1.29073 15.5852C1.18524 15.4798 1.12598 15.3367 1.12598 15.1875V13.059C0.439727 12.5483 0.000976562 11.7281 0.000976562 10.8124V10.3478C0.00116537 10.1626 0.0196299 9.97799 0.0561016 9.7965L0.432977 7.9065C0.556727 7.29225 0.956101 6.768 1.51748 6.48788C1.71004 6.39242 1.86208 6.23119 1.9461 6.03338L2.8371 3.95438H2.83485ZM5.42235 3.375C5.09193 3.37502 4.76879 3.47204 4.49301 3.65403C4.21723 3.83602 4.00094 4.09497 3.87098 4.39875L2.97998 6.47663C2.791 6.91881 2.45083 7.27932 2.02035 7.49363C1.89637 7.55508 1.78822 7.6443 1.70432 7.75434C1.62042 7.86438 1.56303 7.99229 1.5366 8.12813L1.1586 10.017C1.13649 10.1259 1.12519 10.2367 1.12485 10.3478V10.8124C1.12485 11.7079 1.82235 12.4414 2.70885 12.4819C4.45823 12.5606 6.9681 12.6563 8.99985 12.6563C11.0316 12.6563 13.5415 12.5618 15.2909 12.4819C15.719 12.461 16.1227 12.2758 16.4177 11.9648C16.7128 11.6539 16.8765 11.2411 16.8749 10.8124V10.3478C16.8749 10.2368 16.8636 10.1265 16.8411 10.017L16.4642 8.127C16.4376 7.99137 16.3802 7.86369 16.2963 7.75385C16.2124 7.64401 16.1043 7.55497 15.9805 7.49363C15.55 7.27932 15.2098 6.91881 15.0209 6.47663L14.1299 4.39763C13.9996 4.09388 13.7831 3.83505 13.5071 3.65325C13.2311 3.47146 12.9078 3.37471 12.5774 3.375H5.42235Z" fill="black"/>
</g>
<defs>
<clipPath id="clip0_4716_3292">
<rect width="18" height="18" fill="white"/>
</clipPath>
</defs>
</svg>
