<svg width="18" height="18" viewBox="0 0 18 18" fill="none" xmlns="http://www.w3.org/2000/svg">
<path d="M7.3125 0C7.16332 0 7.02024 0.0592632 6.91475 0.164752C6.80926 0.270242 6.75 0.413316 6.75 0.5625C6.75 0.711684 6.80926 0.854758 6.91475 0.960248C7.02024 1.06574 7.16332 1.125 7.3125 1.125H8.4375V2.26237C6.72188 2.33437 4.67325 2.70562 3.276 2.99925C1.99687 3.267 1.125 4.40437 1.125 5.68687V15.1875C1.125 15.9334 1.42132 16.6488 1.94876 17.1762C2.47621 17.7037 3.19158 18 3.9375 18H14.0625C14.8084 18 15.5238 17.7037 16.0512 17.1762C16.5787 16.6488 16.875 15.9334 16.875 15.1875V5.68687C16.875 4.40437 16.0031 3.26813 14.724 2.99813C13.3268 2.70563 11.2781 2.33437 9.5625 2.26237V1.125H10.6875C10.8367 1.125 10.9798 1.06574 11.0852 0.960248C11.1907 0.854758 11.25 0.711684 11.25 0.5625C11.25 0.413316 11.1907 0.270242 11.0852 0.164752C10.9798 0.0592632 10.8367 0 10.6875 0L7.3125 0ZM9 3.375C10.6841 3.375 12.9431 3.7755 14.4934 4.0995C15.228 4.25362 15.75 4.91175 15.75 5.68687V15.1875C15.7501 15.5511 15.6327 15.905 15.4154 16.1965C15.1981 16.488 14.8925 16.7015 14.544 16.8053C14.5049 16.5084 14.4674 16.2114 14.4315 15.9142C14.328 15.0581 14.2065 13.9432 14.1322 12.897C14.0898 12.349 14.0666 11.7996 14.0625 11.25C14.0625 10.0676 14.2234 8.5455 14.3752 7.38562L14.454 6.79838C14.58 5.90063 13.9815 5.031 13.0545 4.88925C11.9745 4.72388 10.278 4.5 9 4.5C7.722 4.5 6.02437 4.725 4.9455 4.88925C4.01737 5.031 3.42 5.90175 3.546 6.79838C3.5715 6.97838 3.59775 7.17413 3.62475 7.38562C3.77662 8.5455 3.9375 10.0676 3.9375 11.25C3.9375 11.7315 3.9105 12.2996 3.86775 12.897C3.7918 13.905 3.69202 14.911 3.5685 15.9142C3.52575 16.263 3.4875 16.5667 3.456 16.8053C3.10753 16.7015 2.80188 16.488 2.58457 16.1965C2.36726 15.905 2.24991 15.5511 2.25 15.1875V5.68687C2.25 4.91062 2.772 4.25362 3.50663 4.10063C5.05688 3.77325 7.31588 3.375 9 3.375ZM13.3144 16.0492C13.3526 16.3643 13.3886 16.6455 13.419 16.875H4.581C4.73093 15.7531 4.85397 14.6278 4.95 13.5H7.47675C7.88175 13.5 8.26875 13.3391 8.5545 13.0545C8.59126 13.0173 8.63506 12.9878 8.68335 12.9677C8.73164 12.9476 8.78345 12.9373 8.83575 12.9375H9.16425C9.21655 12.9373 9.26836 12.9476 9.31665 12.9677C9.36494 12.9878 9.40874 13.0173 9.4455 13.0545C9.73125 13.3391 10.1194 13.5 10.5233 13.5H13.05C13.1265 14.409 13.2278 15.3236 13.3155 16.0492H13.3144ZM6.75 15.1875C6.75 15.3367 6.69074 15.4798 6.58525 15.5852C6.47976 15.6907 6.33668 15.75 6.1875 15.75C6.03832 15.75 5.89524 15.6907 5.78975 15.5852C5.68426 15.4798 5.625 15.3367 5.625 15.1875C5.625 15.0383 5.68426 14.8952 5.78975 14.7898C5.89524 14.6843 6.03832 14.625 6.1875 14.625C6.33668 14.625 6.47976 14.6843 6.58525 14.7898C6.69074 14.8952 6.75 15.0383 6.75 15.1875ZM6.75 15.1875C6.75 15.0383 6.80926 14.8952 6.91475 14.7898C7.02024 14.6843 7.16332 14.625 7.3125 14.625C7.46168 14.625 7.60476 14.6843 7.71025 14.7898C7.81574 14.8952 7.875 15.0383 7.875 15.1875C7.875 15.3367 7.81574 15.4798 7.71025 15.5852C7.60476 15.6907 7.46168 15.75 7.3125 15.75C7.16332 15.75 7.02024 15.6907 6.91475 15.5852C6.80926 15.4798 6.75 15.3367 6.75 15.1875ZM10.6875 15.75C10.8367 15.75 10.9798 15.6907 11.0852 15.5852C11.1907 15.4798 11.25 15.3367 11.25 15.1875C11.25 15.3367 11.3093 15.4798 11.4148 15.5852C11.5202 15.6907 11.6633 15.75 11.8125 15.75C11.9617 15.75 12.1048 15.6907 12.2102 15.5852C12.3157 15.4798 12.375 15.3367 12.375 15.1875C12.375 15.0383 12.3157 14.8952 12.2102 14.7898C12.1048 14.6843 11.9617 14.625 11.8125 14.625C11.6633 14.625 11.5202 14.6843 11.4148 14.7898C11.3093 14.8952 11.25 15.0383 11.25 15.1875C11.25 15.0762 11.217 14.9675 11.1552 14.875C11.0934 14.7825 11.0055 14.7104 10.9028 14.6678C10.8 14.6252 10.6869 14.6141 10.5778 14.6358C10.4686 14.6575 10.3684 14.7111 10.2898 14.7898C10.2111 14.8684 10.1575 14.9686 10.1358 15.0778C10.1141 15.1869 10.1252 15.3 10.1678 15.4028C10.2104 15.5055 10.2825 15.5934 10.375 15.6552C10.4675 15.717 10.5762 15.75 10.6875 15.75ZM5.02875 12.375C5.05012 11.9779 5.0625 11.5965 5.0625 11.25C5.0625 10.2071 4.9455 8.94263 4.8195 7.875H13.1805C13.0545 8.94263 12.9375 10.2071 12.9375 11.25C12.9375 11.5965 12.9499 11.9779 12.9712 12.375H10.5233C10.4709 12.3752 10.4191 12.3649 10.3709 12.3448C10.3226 12.3247 10.2788 12.2952 10.242 12.258C10.1006 12.1164 9.93255 12.0041 9.74759 11.9277C9.56263 11.8512 9.36439 11.8121 9.16425 11.8125H8.83575C8.43075 11.8125 8.04375 11.9734 7.758 12.258C7.72124 12.2952 7.67744 12.3247 7.62915 12.3448C7.58086 12.3649 7.52905 12.3752 7.47675 12.375H5.02875ZM4.67438 6.75L4.65975 6.642C4.63592 6.49665 4.67041 6.34777 4.75572 6.2277C4.84103 6.10763 4.97028 6.02607 5.11538 6.00075C6.19312 5.8365 7.81537 5.625 9 5.625C10.1846 5.625 11.8069 5.8365 12.8846 6.00075C13.0297 6.02607 13.159 6.10763 13.2443 6.2277C13.3296 6.34777 13.3641 6.49665 13.3403 6.642L13.3256 6.75H4.67438Z" fill="black"/>
</svg>
