<svg width="18" height="18" viewBox="0 0 18 18" fill="none" xmlns="http://www.w3.org/2000/svg">
<g clip-path="url(#clip0_4716_3295)">
<path d="M5.6254 12.3751C5.6254 12.6735 5.50687 12.9596 5.2959 13.1706C5.08492 13.3816 4.79877 13.5001 4.5004 13.5001C4.20203 13.5001 3.91588 13.3816 3.70491 13.1706C3.49393 12.9596 3.3754 12.6735 3.3754 12.3751C3.3754 12.0768 3.49393 11.7906 3.70491 11.5796C3.91588 11.3686 4.20203 11.2501 4.5004 11.2501C4.79877 11.2501 5.08492 11.3686 5.2959 11.5796C5.50687 11.7906 5.6254 12.0768 5.6254 12.3751ZM14.6254 12.3751C14.6254 12.6735 14.5069 12.9596 14.2959 13.1706C14.0849 13.3816 13.7988 13.5001 13.5004 13.5001C13.202 13.5001 12.9159 13.3816 12.7049 13.1706C12.4939 12.9596 12.3754 12.6735 12.3754 12.3751C12.3754 12.0768 12.4939 11.7906 12.7049 11.5796C12.9159 11.3686 13.202 11.2501 13.5004 11.2501C13.7988 11.2501 14.0849 11.3686 14.2959 11.5796C14.5069 11.7906 14.6254 12.0768 14.6254 12.3751ZM7.8754 11.2501C7.57703 11.2501 7.29088 11.3686 7.07991 11.5796C6.86893 11.7906 6.7504 12.0768 6.7504 12.3751C6.7504 12.6735 6.86893 12.9596 7.07991 13.1706C7.29088 13.3816 7.57703 13.5001 7.8754 13.5001H10.1254C10.4238 13.5001 10.7099 13.3816 10.9209 13.1706C11.1319 12.9596 11.2504 12.6735 11.2504 12.3751C11.2504 12.0768 11.1319 11.7906 10.9209 11.5796C10.7099 11.3686 10.4238 11.2501 10.1254 11.2501H7.8754ZM9.0004 4.50012C6.8899 4.50012 5.14615 4.62275 3.8794 4.75437C3.74115 4.76883 3.61316 4.83396 3.52009 4.9372C3.42702 5.04045 3.37548 5.1745 3.3754 5.3135V9.31175C3.37548 9.45075 3.42702 9.58479 3.52009 9.68804C3.61316 9.79128 3.74115 9.85641 3.8794 9.87087C5.14615 10.0025 6.8899 10.1251 9.0004 10.1251C11.1109 10.1251 12.8547 10.0025 14.1214 9.87087C14.2596 9.85641 14.3876 9.79128 14.4807 9.68804C14.5738 9.58479 14.6253 9.45075 14.6254 9.31175V5.3135C14.6253 5.1745 14.5738 5.04045 14.4807 4.9372C14.3876 4.83396 14.2596 4.76883 14.1214 4.75437C12.4199 4.58121 10.7106 4.49635 9.0004 4.50012ZM9.0004 3.37512C6.93378 3.37512 5.22828 3.4955 3.9964 3.62262C3.92165 3.63301 3.84557 3.62826 3.77269 3.60863C3.69981 3.58901 3.63163 3.55492 3.5722 3.5084C3.51277 3.46187 3.46332 3.40386 3.42677 3.33783C3.39023 3.27179 3.36735 3.19908 3.3595 3.12401C3.35165 3.04895 3.35898 2.97307 3.38106 2.9009C3.40314 2.82873 3.43952 2.76174 3.48803 2.70393C3.53654 2.64611 3.59619 2.59865 3.66343 2.56436C3.73067 2.53008 3.80411 2.50968 3.8794 2.50437C5.58086 2.33121 7.29015 2.24635 9.0004 2.25012C11.1109 2.25012 12.8547 2.37275 14.1214 2.50437C14.1967 2.50968 14.2701 2.53008 14.3374 2.56436C14.4046 2.59865 14.4643 2.64611 14.5128 2.70393C14.5613 2.76174 14.5977 2.82873 14.6197 2.9009C14.6418 2.97307 14.6492 3.04895 14.6413 3.12401C14.6334 3.19908 14.6106 3.27179 14.574 3.33783C14.5375 3.40386 14.488 3.46187 14.4286 3.5084C14.3692 3.55492 14.301 3.58901 14.2281 3.60863C14.1552 3.62826 14.0792 3.63301 14.0044 3.62262C12.3418 3.45374 10.6716 3.37113 9.0004 3.37512Z" fill="black"/>
<path d="M16.875 9.0001C17.1734 9.0001 17.4595 8.88157 17.6705 8.67059C17.8815 8.45961 18 8.17346 18 7.87509V5.62509C18 5.32673 17.8815 5.04058 17.6705 4.8296C17.4595 4.61862 17.1734 4.50009 16.875 4.50009V2.9701C16.875 1.6336 15.9244 0.459095 14.553 0.301595C12.7091 0.0971153 10.8552 -0.00354354 9 9.52147e-05C6.6375 9.52147e-05 4.734 0.153095 3.447 0.301595C2.07562 0.459095 1.125 1.6336 1.125 2.9701V4.50009C0.826631 4.50009 0.540483 4.61862 0.329505 4.8296C0.118526 5.04058 0 5.32673 0 5.62509L0 7.87509C0 8.17346 0.118526 8.45961 0.329505 8.67059C0.540483 8.88157 0.826631 9.0001 1.125 9.0001V12.9376C1.125 13.8578 1.56712 14.6746 2.25 15.1876V17.4376C2.25 17.5868 2.30926 17.7299 2.41475 17.8353C2.52024 17.9408 2.66332 18.0001 2.8125 18.0001H5.0625C5.21168 18.0001 5.35476 17.9408 5.46025 17.8353C5.56574 17.7299 5.625 17.5868 5.625 17.4376V15.7501H12.375V17.4376C12.375 17.5868 12.4343 17.7299 12.5398 17.8353C12.6452 17.9408 12.7883 18.0001 12.9375 18.0001H15.1875C15.3367 18.0001 15.4798 17.9408 15.5852 17.8353C15.6907 17.7299 15.75 17.5868 15.75 17.4376V15.1876C16.4329 14.6746 16.875 13.8578 16.875 12.9376V9.0001ZM9 1.1251C11.313 1.1251 13.1737 1.27585 14.4247 1.41872C15.1852 1.50647 15.75 2.16122 15.75 2.9701V12.9376C15.75 13.3851 15.5722 13.8144 15.2557 14.1308C14.9393 14.4473 14.5101 14.6251 14.0625 14.6251H3.9375C3.48995 14.6251 3.06072 14.4473 2.74426 14.1308C2.42779 13.8144 2.25 13.3851 2.25 12.9376V2.9701C2.25 2.1601 2.81475 1.50647 3.57525 1.41872C5.37657 1.21931 7.18768 1.12128 9 1.1251Z" fill="black"/>
</g>
<defs>
<clipPath id="clip0_4716_3295">
<rect width="18" height="18" fill="white"/>
</clipPath>
</defs>
</svg>
