<svg width="26" height="26" viewBox="0 0 26 26" fill="none" xmlns="http://www.w3.org/2000/svg">
<path d="M0.545486 0.545486C0.717961 0.372574 0.922854 0.235387 1.14843 0.141784C1.37401 0.0481801 1.61583 0 1.86006 0C2.10428 0 2.34611 0.0481801 2.57168 0.141784C2.79726 0.235387 3.00215 0.372574 3.17463 0.545486L13.0005 10.3751L22.8263 0.545486C22.999 0.372854 23.2039 0.235914 23.4295 0.142487C23.655 0.0490589 23.8968 0.000972127 24.1409 0.000972127C24.3851 0.000972127 24.6268 0.0490589 24.8524 0.142487C25.0779 0.235914 25.2829 0.372854 25.4555 0.545486C25.6281 0.718117 25.7651 0.923061 25.8585 1.14862C25.9519 1.37417 26 1.61592 26 1.86006C26 2.1042 25.9519 2.34594 25.8585 2.5715C25.7651 2.79705 25.6281 3.002 25.4555 3.17463L15.6259 13.0005L25.4555 22.8263C25.6281 22.999 25.7651 23.2039 25.8585 23.4295C25.9519 23.655 26 23.8968 26 24.1409C26 24.3851 25.9519 24.6268 25.8585 24.8524C25.7651 25.0779 25.6281 25.2829 25.4555 25.4555C25.2829 25.6281 25.0779 25.7651 24.8524 25.8585C24.6268 25.9519 24.3851 26 24.1409 26C23.8968 26 23.655 25.9519 23.4295 25.8585C23.2039 25.7651 22.999 25.6281 22.8263 25.4555L13.0005 15.6259L3.17463 25.4555C3.002 25.6281 2.79705 25.7651 2.5715 25.8585C2.34594 25.9519 2.1042 26 1.86006 26C1.61592 26 1.37417 25.9519 1.14862 25.8585C0.923061 25.7651 0.718117 25.6281 0.545486 25.4555C0.372854 25.2829 0.235914 25.0779 0.142487 24.8524C0.0490589 24.6268 0.000972127 24.3851 0.000972127 24.1409C0.000972127 23.8968 0.0490589 23.655 0.142487 23.4295C0.235914 23.2039 0.372854 22.999 0.545486 22.8263L10.3751 13.0005L0.545486 3.17463C0.372574 3.00215 0.235387 2.79726 0.141784 2.57168C0.0481801 2.34611 0 2.10428 0 1.86006C0 1.61583 0.0481801 1.37401 0.141784 1.14843C0.235387 0.922854 0.372574 0.717961 0.545486 0.545486Z" fill="#888888"/>
</svg>
