<svg width="16" height="16" viewBox="0 0 16 16" fill="none" xmlns="http://www.w3.org/2000/svg">
<g clip-path="url(#clip0_216_1530)">
<path d="M3.65447 1.32805C3.59544 1.25211 3.52092 1.1896 3.43587 1.14468C3.35082 1.09975 3.25719 1.07343 3.16119 1.06747C3.06519 1.06151 2.96902 1.07605 2.87907 1.11012C2.78912 1.14418 2.70744 1.19699 2.63947 1.26505L1.60547 2.30005C1.12247 2.78405 0.944471 3.46905 1.15547 4.07005C2.0322 6.55716 3.45663 8.81546 5.32347 10.6781C7.18606 12.5449 9.44436 13.9693 11.9315 14.8461C12.5325 15.0571 13.2175 14.8791 13.7015 14.3961L14.7355 13.3621C14.8035 13.2941 14.8563 13.2124 14.8904 13.1225C14.9245 13.0325 14.939 12.9363 14.933 12.8403C14.9271 12.7443 14.9008 12.6507 14.8558 12.5656C14.8109 12.4806 14.7484 12.4061 14.6725 12.3471L12.3655 10.5531C12.2843 10.4903 12.1899 10.4467 12.0895 10.4255C11.989 10.4044 11.8851 10.4063 11.7855 10.4311L9.59547 10.9781C9.30313 11.0506 8.997 11.0465 8.70671 10.9661C8.41643 10.8857 8.15181 10.7317 7.93847 10.5191L5.48247 8.06205C5.26965 7.84881 5.11549 7.58424 5.0349 7.29395C4.95431 7.00366 4.95003 6.69748 5.02247 6.40505L5.57047 4.21505C5.59523 4.11544 5.59712 4.01151 5.57599 3.91106C5.55486 3.81061 5.51126 3.71625 5.44847 3.63505L3.65447 1.32805ZM1.88447 0.511051C2.05947 0.336 2.2697 0.200181 2.50121 0.112612C2.73272 0.0250429 2.98021 -0.0122724 3.22725 0.00314389C3.47429 0.0185602 3.71522 0.0863553 3.93405 0.202028C4.15288 0.3177 4.3446 0.478602 4.49647 0.674051L6.29047 2.98005C6.61947 3.40305 6.73547 3.95405 6.60547 4.47405L6.05847 6.66405C6.03039 6.77749 6.03201 6.89625 6.06319 7.00888C6.09437 7.12151 6.15405 7.2242 6.23647 7.30705L8.69347 9.76405C8.77642 9.84664 8.87928 9.90642 8.9921 9.9376C9.10492 9.96878 9.22388 9.97032 9.33747 9.94205L11.5265 9.39505C11.7831 9.33126 12.0509 9.32647 12.3096 9.38102C12.5684 9.43558 12.8114 9.54807 13.0205 9.71005L15.3265 11.5041C16.1555 12.1491 16.2315 13.3741 15.4895 14.1151L14.4555 15.1491C13.7155 15.8891 12.6095 16.2141 11.5785 15.8511C8.93914 14.9236 6.54301 13.4128 4.56847 11.4311C2.58684 9.4568 1.07602 7.06102 0.148471 4.42205C-0.213529 3.39205 0.111471 2.28505 0.851471 1.54505L1.88447 0.511051Z" fill="white"/>
</g>
<defs>
<clipPath id="clip0_216_1530">
<rect width="16" height="16" fill="white"/>
</clipPath>
</defs>
</svg>
