<svg width="24" height="24" viewBox="0 0 24 24" fill="none" xmlns="http://www.w3.org/2000/svg">
<rect width="24" height="24" rx="4" fill="#427935"/>
<path d="M8.95828 17H7.75428V10.014C7.75428 9.74333 7.75428 9.51467 7.75428 9.328C7.76361 9.14133 7.77295 8.96867 7.78228 8.81C7.79161 8.642 7.80095 8.46933 7.81028 8.292C7.66095 8.44133 7.52561 8.56733 7.40428 8.67C7.28295 8.77267 7.12895 8.90333 6.94228 9.062L5.87828 9.93L5.23428 9.104L7.93628 7.004H8.95828V17ZM18.902 9.342C18.902 9.79 18.818 10.1773 18.65 10.504C18.482 10.8307 18.2393 11.0967 17.922 11.302C17.614 11.5073 17.25 11.652 16.83 11.736V11.792C17.6327 11.8853 18.23 12.1373 18.622 12.548C19.014 12.9587 19.21 13.4953 19.21 14.158C19.21 14.7367 19.0747 15.2547 18.804 15.712C18.5333 16.16 18.1133 16.51 17.544 16.762C16.984 17.014 16.2607 17.14 15.374 17.14C14.8513 17.14 14.366 17.098 13.918 17.014C13.47 16.9393 13.0407 16.7993 12.63 16.594V15.446C13.05 15.6513 13.5027 15.8147 13.988 15.936C14.4733 16.048 14.94 16.104 15.388 16.104C16.284 16.104 16.928 15.9313 17.32 15.586C17.7213 15.2313 17.922 14.746 17.922 14.13C17.922 13.71 17.81 13.374 17.586 13.122C17.3713 12.8607 17.054 12.6693 16.634 12.548C16.214 12.4267 15.71 12.366 15.122 12.366H14.156V11.316H15.136C15.6867 11.316 16.144 11.2367 16.508 11.078C16.8813 10.9193 17.1613 10.7 17.348 10.42C17.544 10.1307 17.642 9.79933 17.642 9.426C17.642 8.94067 17.4787 8.56733 17.152 8.306C16.8253 8.03533 16.382 7.9 15.822 7.9C15.4673 7.9 15.1453 7.93733 14.856 8.012C14.5667 8.07733 14.296 8.17533 14.044 8.306C13.8013 8.42733 13.554 8.572 13.302 8.74L12.686 7.9C12.9287 7.71333 13.204 7.54067 13.512 7.382C13.8293 7.22333 14.1793 7.09733 14.562 7.004C14.9447 6.91067 15.36 6.864 15.808 6.864C16.8533 6.864 17.628 7.09733 18.132 7.564C18.6453 8.03067 18.902 8.62333 18.902 9.342Z" fill="white"/>
</svg>
