<svg width="24" height="24" viewBox="0 0 24 24" fill="none" xmlns="http://www.w3.org/2000/svg">
<rect width="24" height="24" rx="4" fill="#C60F28"/>
<path d="M15.7221 14.732H14.2661V17H13.0761V14.732H8.28814V13.682L12.9921 6.948H14.2661V13.626H15.7221V14.732ZM13.0761 10.476C13.0761 10.2333 13.0761 10.014 13.0761 9.818C13.0855 9.61267 13.0948 9.42133 13.1041 9.244C13.1135 9.06667 13.1181 8.89867 13.1181 8.74C13.1275 8.572 13.1368 8.41333 13.1461 8.264H13.0901C13.0155 8.44133 12.9221 8.63267 12.8101 8.838C12.6981 9.04333 12.5908 9.216 12.4881 9.356L9.49214 13.626H13.0761V10.476Z" fill="white"/>
</svg>
