<svg width="24" height="24" viewBox="0 0 24 24" fill="none" xmlns="http://www.w3.org/2000/svg">
<rect width="24" height="24" rx="4" fill="#ED6A02"/>
<path d="M15.2741 11.274C15.2741 11.8433 15.2321 12.4127 15.1481 12.982C15.0735 13.542 14.9381 14.074 14.7421 14.578C14.5461 15.0727 14.2755 15.516 13.9301 15.908C13.5848 16.2907 13.1461 16.594 12.6141 16.818C12.0821 17.0327 11.4381 17.14 10.6821 17.14C10.4955 17.14 10.2761 17.126 10.0241 17.098C9.78147 17.0793 9.58081 17.0467 9.42214 17V15.95C9.59014 16.006 9.78614 16.0527 10.0101 16.09C10.2341 16.118 10.4488 16.132 10.6541 16.132C11.3075 16.132 11.8441 16.0247 12.2641 15.81C12.6935 15.5953 13.0341 15.306 13.2861 14.942C13.5381 14.5687 13.7201 14.1393 13.8321 13.654C13.9441 13.1593 14.0095 12.6413 14.0281 12.1H13.9441C13.8041 12.3147 13.6268 12.5107 13.4121 12.688C13.1975 12.8653 12.9361 13.0053 12.6281 13.108C12.3295 13.2107 11.9748 13.262 11.5641 13.262C10.9948 13.262 10.4908 13.1453 10.0521 12.912C9.62281 12.6693 9.28681 12.324 9.04414 11.876C8.81081 11.428 8.69414 10.882 8.69414 10.238C8.69414 9.538 8.82481 8.936 9.08614 8.432C9.35681 7.928 9.73014 7.54067 10.2061 7.27C10.6821 6.99933 11.2421 6.864 11.8861 6.864C12.3621 6.864 12.8055 6.95733 13.2161 7.144C13.6268 7.32133 13.9861 7.592 14.2941 7.956C14.6021 8.32 14.8401 8.77733 15.0081 9.328C15.1855 9.87867 15.2741 10.5273 15.2741 11.274ZM11.8861 7.9C11.3075 7.9 10.8315 8.09133 10.4581 8.474C10.0941 8.85667 9.91214 9.44 9.91214 10.224C9.91214 10.868 10.0661 11.3767 10.3741 11.75C10.6915 12.114 11.1768 12.296 11.8301 12.296C12.2781 12.296 12.6655 12.2073 12.9921 12.03C13.3188 11.8433 13.5708 11.61 13.7481 11.33C13.9348 11.05 14.0281 10.7607 14.0281 10.462C14.0281 10.1633 13.9815 9.86467 13.8881 9.566C13.8041 9.258 13.6735 8.978 13.4961 8.726C13.3188 8.474 13.0948 8.27333 12.8241 8.124C12.5535 7.97467 12.2408 7.9 11.8861 7.9Z" fill="white"/>
</svg>
