<svg width="24" height="24" viewBox="0 0 24 24" fill="none" xmlns="http://www.w3.org/2000/svg">
<rect width="24" height="24" rx="4" fill="#24B3D6"/>
<path d="M8.76414 12.73C8.76414 12.1513 8.80147 11.582 8.87614 11.022C8.96014 10.462 9.10014 9.93467 9.29614 9.44C9.49214 8.936 9.76281 8.49267 10.1081 8.11C10.4535 7.718 10.8875 7.41467 11.4101 7.2C11.9421 6.976 12.5861 6.864 13.3421 6.864C13.5381 6.864 13.7528 6.87333 13.9861 6.892C14.2288 6.91067 14.4248 6.94333 14.5741 6.99V8.04C14.4061 7.984 14.2148 7.942 14.0001 7.914C13.7948 7.886 13.5848 7.872 13.3701 7.872C12.7261 7.872 12.1895 7.97933 11.7601 8.194C11.3308 8.40867 10.9901 8.70267 10.7381 9.076C10.4955 9.44933 10.3181 9.87867 10.2061 10.364C10.0941 10.8493 10.0241 11.3673 9.99614 11.918H10.0801C10.2201 11.694 10.3975 11.4933 10.6121 11.316C10.8268 11.1387 11.0835 10.9987 11.3821 10.896C11.6901 10.7933 12.0448 10.742 12.4461 10.742C13.0248 10.742 13.5288 10.8633 13.9581 11.106C14.3968 11.3393 14.7375 11.6847 14.9801 12.142C15.2228 12.59 15.3441 13.136 15.3441 13.78C15.3441 14.4707 15.2135 15.068 14.9521 15.572C14.6908 16.076 14.3221 16.4633 13.8461 16.734C13.3795 17.0047 12.8195 17.14 12.1661 17.14C11.6901 17.14 11.2468 17.0513 10.8361 16.874C10.4255 16.6967 10.0615 16.426 9.74414 16.062C9.43614 15.698 9.19347 15.2407 9.01614 14.69C8.84814 14.13 8.76414 13.4767 8.76414 12.73ZM12.1521 16.104C12.7401 16.104 13.2161 15.9173 13.5801 15.544C13.9441 15.1613 14.1261 14.5733 14.1261 13.78C14.1261 13.1453 13.9628 12.6413 13.6361 12.268C13.3188 11.8947 12.8381 11.708 12.1941 11.708C11.7555 11.708 11.3728 11.8013 11.0461 11.988C10.7195 12.1653 10.4628 12.394 10.2761 12.674C10.0988 12.954 10.0101 13.2433 10.0101 13.542C10.0101 13.85 10.0521 14.1533 10.1361 14.452C10.2295 14.7507 10.3648 15.026 10.5421 15.278C10.7288 15.53 10.9528 15.7307 11.2141 15.88C11.4848 16.0293 11.7975 16.104 12.1521 16.104Z" fill="white"/>
</svg>
