<svg width="24" height="24" viewBox="0 0 24 24" fill="none" xmlns="http://www.w3.org/2000/svg">
<rect width="24" height="24" rx="4" fill="#970B31"/>
<path d="M11.9841 6.864C12.5721 6.864 13.0901 6.95733 13.5381 7.144C13.9861 7.32133 14.3361 7.58733 14.5881 7.942C14.8495 8.29667 14.9801 8.73533 14.9801 9.258C14.9801 9.65933 14.8915 10.0093 14.7141 10.308C14.5461 10.6067 14.3175 10.8727 14.0281 11.106C13.7388 11.33 13.4215 11.5307 13.0761 11.708C13.4868 11.904 13.8601 12.128 14.1961 12.38C14.5321 12.6227 14.7981 12.9073 14.9941 13.234C15.1995 13.5607 15.3021 13.9527 15.3021 14.41C15.3021 14.97 15.1668 15.4553 14.8961 15.866C14.6255 16.2673 14.2428 16.58 13.7481 16.804C13.2628 17.028 12.6888 17.14 12.0261 17.14C11.3075 17.14 10.6961 17.0327 10.1921 16.818C9.69747 16.6033 9.31947 16.3 9.05814 15.908C8.80614 15.5067 8.68014 15.0213 8.68014 14.452C8.68014 13.9947 8.77347 13.598 8.96014 13.262C9.15614 12.926 9.41281 12.6367 9.73014 12.394C10.0475 12.1513 10.3881 11.946 10.7521 11.778C10.4255 11.5913 10.1268 11.3813 9.85614 11.148C9.59481 10.9053 9.38481 10.63 9.22614 10.322C9.07681 10.014 9.00214 9.65467 9.00214 9.244C9.00214 8.73067 9.13281 8.30133 9.39414 7.956C9.65547 7.60133 10.0101 7.33067 10.4581 7.144C10.9061 6.95733 11.4148 6.864 11.9841 6.864ZM9.88414 14.466C9.88414 14.9513 10.0568 15.3573 10.4021 15.684C10.7475 16.0013 11.2795 16.16 11.9981 16.16C12.4555 16.16 12.8381 16.0853 13.1461 15.936C13.4541 15.7867 13.6875 15.5813 13.8461 15.32C14.0141 15.0587 14.0981 14.76 14.0981 14.424C14.0981 14.0973 14.0095 13.8127 13.8321 13.57C13.6641 13.318 13.4215 13.094 13.1041 12.898C12.7961 12.702 12.4275 12.5247 11.9981 12.366L11.7741 12.282C11.3635 12.4593 11.0181 12.6507 10.7381 12.856C10.4581 13.0613 10.2435 13.2947 10.0941 13.556C9.95414 13.8173 9.88414 14.1207 9.88414 14.466ZM11.9701 7.858C11.4568 7.858 11.0321 7.984 10.6961 8.236C10.3695 8.47867 10.2061 8.83333 10.2061 9.3C10.2061 9.64533 10.2855 9.93467 10.4441 10.168C10.6121 10.4013 10.8361 10.602 11.1161 10.77C11.3961 10.9287 11.7041 11.0827 12.0401 11.232C12.3668 11.092 12.6561 10.938 12.9081 10.77C13.1695 10.602 13.3748 10.4013 13.5241 10.168C13.6828 9.92533 13.7621 9.636 13.7621 9.3C13.7621 8.83333 13.5988 8.47867 13.2721 8.236C12.9455 7.984 12.5115 7.858 11.9701 7.858Z" fill="white"/>
</svg>
