<svg width="24" height="24" viewBox="0 0 24 24" fill="none" xmlns="http://www.w3.org/2000/svg">
<rect width="24" height="24" rx="4" fill="#00689D"/>
<path d="M8.95828 17H7.75428V10.014C7.75428 9.74333 7.75428 9.51467 7.75428 9.328C7.76361 9.14133 7.77295 8.96867 7.78228 8.81C7.79161 8.642 7.80095 8.46933 7.81028 8.292C7.66095 8.44133 7.52561 8.56733 7.40428 8.67C7.28295 8.77267 7.12895 8.90333 6.94228 9.062L5.87828 9.93L5.23428 9.104L7.93628 7.004H8.95828V17ZM12.77 12.73C12.77 12.1513 12.8073 11.582 12.882 11.022C12.966 10.462 13.106 9.93467 13.302 9.44C13.498 8.936 13.7687 8.49267 14.114 8.11C14.4593 7.718 14.8933 7.41467 15.416 7.2C15.948 6.976 16.592 6.864 17.348 6.864C17.544 6.864 17.7587 6.87333 17.992 6.892C18.2347 6.91067 18.4307 6.94333 18.58 6.99V8.04C18.412 7.984 18.2207 7.942 18.006 7.914C17.8007 7.886 17.5907 7.872 17.376 7.872C16.732 7.872 16.1953 7.97933 15.766 8.194C15.3367 8.40867 14.996 8.70267 14.744 9.076C14.5013 9.44933 14.324 9.87867 14.212 10.364C14.1 10.8493 14.03 11.3673 14.002 11.918H14.086C14.226 11.694 14.4033 11.4933 14.618 11.316C14.8327 11.1387 15.0893 10.9987 15.388 10.896C15.696 10.7933 16.0507 10.742 16.452 10.742C17.0307 10.742 17.5347 10.8633 17.964 11.106C18.4027 11.3393 18.7433 11.6847 18.986 12.142C19.2287 12.59 19.35 13.136 19.35 13.78C19.35 14.4707 19.2193 15.068 18.958 15.572C18.6967 16.076 18.328 16.4633 17.852 16.734C17.3853 17.0047 16.8253 17.14 16.172 17.14C15.696 17.14 15.2527 17.0513 14.842 16.874C14.4313 16.6967 14.0673 16.426 13.75 16.062C13.442 15.698 13.1993 15.2407 13.022 14.69C12.854 14.13 12.77 13.4767 12.77 12.73ZM16.158 16.104C16.746 16.104 17.222 15.9173 17.586 15.544C17.95 15.1613 18.132 14.5733 18.132 13.78C18.132 13.1453 17.9687 12.6413 17.642 12.268C17.3247 11.8947 16.844 11.708 16.2 11.708C15.7613 11.708 15.3787 11.8013 15.052 11.988C14.7253 12.1653 14.4687 12.394 14.282 12.674C14.1047 12.954 14.016 13.2433 14.016 13.542C14.016 13.85 14.058 14.1533 14.142 14.452C14.2353 14.7507 14.3707 15.026 14.548 15.278C14.7347 15.53 14.9587 15.7307 15.22 15.88C15.4907 16.0293 15.8033 16.104 16.158 16.104Z" fill="white"/>
</svg>
