<svg width="24" height="24" viewBox="0 0 24 24" fill="none" xmlns="http://www.w3.org/2000/svg">
<rect width="24" height="24" rx="4" fill="#00973B"/>
<path d="M14.8961 9.342C14.8961 9.79 14.8121 10.1773 14.6441 10.504C14.4761 10.8307 14.2335 11.0967 13.9161 11.302C13.6081 11.5073 13.2441 11.652 12.8241 11.736V11.792C13.6268 11.8853 14.2241 12.1373 14.6161 12.548C15.0081 12.9587 15.2041 13.4953 15.2041 14.158C15.2041 14.7367 15.0688 15.2547 14.7981 15.712C14.5275 16.16 14.1075 16.51 13.5381 16.762C12.9781 17.014 12.2548 17.14 11.3681 17.14C10.8455 17.14 10.3601 17.098 9.91214 17.014C9.46414 16.9393 9.03481 16.7993 8.62414 16.594V15.446C9.04414 15.6513 9.49681 15.8147 9.98214 15.936C10.4675 16.048 10.9341 16.104 11.3821 16.104C12.2781 16.104 12.9221 15.9313 13.3141 15.586C13.7155 15.2313 13.9161 14.746 13.9161 14.13C13.9161 13.71 13.8041 13.374 13.5801 13.122C13.3655 12.8607 13.0481 12.6693 12.6281 12.548C12.2081 12.4267 11.7041 12.366 11.1161 12.366H10.1501V11.316H11.1301C11.6808 11.316 12.1381 11.2367 12.5021 11.078C12.8755 10.9193 13.1555 10.7 13.3421 10.42C13.5381 10.1307 13.6361 9.79933 13.6361 9.426C13.6361 8.94067 13.4728 8.56733 13.1461 8.306C12.8195 8.03533 12.3761 7.9 11.8161 7.9C11.4615 7.9 11.1395 7.93733 10.8501 8.012C10.5608 8.07733 10.2901 8.17533 10.0381 8.306C9.79547 8.42733 9.54814 8.572 9.29614 8.74L8.68014 7.9C8.92281 7.71333 9.19814 7.54067 9.50614 7.382C9.82347 7.22333 10.1735 7.09733 10.5561 7.004C10.9388 6.91067 11.3541 6.864 11.8021 6.864C12.8475 6.864 13.6221 7.09733 14.1261 7.564C14.6395 8.03067 14.8961 8.62333 14.8961 9.342Z" fill="white"/>
</svg>
