<svg width="24" height="24" viewBox="0 0 24 24" fill="none" xmlns="http://www.w3.org/2000/svg">
<rect width="24" height="24" rx="4" fill="#DC007A"/>
<path d="M8.95828 17H7.75428V10.014C7.75428 9.74333 7.75428 9.51467 7.75428 9.328C7.76361 9.14133 7.77295 8.96867 7.78228 8.81C7.79161 8.642 7.80095 8.46933 7.81028 8.292C7.66095 8.44133 7.52561 8.56733 7.40428 8.67C7.28295 8.77267 7.12895 8.90333 6.94228 9.062L5.87828 9.93L5.23428 9.104L7.93628 7.004H8.95828V17ZM19.322 11.988C19.322 12.8 19.2613 13.5233 19.14 14.158C19.0187 14.7927 18.8227 15.334 18.552 15.782C18.2907 16.2207 17.9453 16.5567 17.516 16.79C17.096 17.0233 16.5873 17.14 15.99 17.14C15.2433 17.14 14.6227 16.9347 14.128 16.524C13.6427 16.1133 13.2787 15.5253 13.036 14.76C12.8027 13.9853 12.686 13.0613 12.686 11.988C12.686 10.9053 12.7933 9.98133 13.008 9.216C13.232 8.45067 13.5867 7.86733 14.072 7.466C14.5573 7.05533 15.1967 6.85 15.99 6.85C16.7367 6.85 17.3573 7.05533 17.852 7.466C18.3467 7.86733 18.7153 8.45067 18.958 9.216C19.2007 9.98133 19.322 10.9053 19.322 11.988ZM13.918 11.988C13.918 12.9027 13.9833 13.6633 14.114 14.27C14.254 14.8767 14.4733 15.334 14.772 15.642C15.08 15.9407 15.486 16.09 15.99 16.09C16.494 16.09 16.8953 15.9407 17.194 15.642C17.502 15.3433 17.726 14.8907 17.866 14.284C18.006 13.668 18.076 12.9027 18.076 11.988C18.076 11.0733 18.006 10.3173 17.866 9.72C17.726 9.11333 17.502 8.66067 17.194 8.362C16.8953 8.054 16.494 7.9 15.99 7.9C15.486 7.9 15.08 8.054 14.772 8.362C14.4733 8.66067 14.254 9.11333 14.114 9.72C13.9833 10.3173 13.918 11.0733 13.918 11.988Z" fill="white"/>
</svg>
