<svg width="24" height="24" viewBox="0 0 24 24" fill="none" xmlns="http://www.w3.org/2000/svg">
<rect width="24" height="24" rx="4" fill="#F5A200"/>
<path d="M8.95828 17H7.75428V10.014C7.75428 9.74333 7.75428 9.51467 7.75428 9.328C7.76361 9.14133 7.77295 8.96867 7.78228 8.81C7.79161 8.642 7.80095 8.46933 7.81028 8.292C7.66095 8.44133 7.52561 8.56733 7.40428 8.67C7.28295 8.77267 7.12895 8.90333 6.94228 9.062L5.87828 9.93L5.23428 9.104L7.93628 7.004H8.95828V17ZM16.97 17H15.766V10.014C15.766 9.74333 15.766 9.51467 15.766 9.328C15.7753 9.14133 15.7847 8.96867 15.794 8.81C15.8033 8.642 15.8127 8.46933 15.822 8.292C15.6727 8.44133 15.5373 8.56733 15.416 8.67C15.2947 8.77267 15.1407 8.90333 14.954 9.062L13.89 9.93L13.246 9.104L15.948 7.004H16.97V17Z" fill="white"/>
</svg>
