<svg width="24" height="24" viewBox="0 0 24 24" fill="none" xmlns="http://www.w3.org/2000/svg">
<rect width="24" height="24" rx="4" fill="#F83921"/>
<path d="M11.8441 10.868C12.5255 10.868 13.1181 10.9847 13.6221 11.218C14.1261 11.4513 14.5135 11.7873 14.7841 12.226C15.0641 12.6553 15.2041 13.1827 15.2041 13.808C15.2041 14.4987 15.0548 15.096 14.7561 15.6C14.4575 16.0947 14.0281 16.4773 13.4681 16.748C12.9175 17.0093 12.2501 17.14 11.4661 17.14C10.9528 17.14 10.4675 17.0933 10.0101 17C9.56214 16.9067 9.18414 16.7713 8.87614 16.594V15.432C9.21214 15.6373 9.61814 15.8007 10.0941 15.922C10.5795 16.034 11.0415 16.09 11.4801 16.09C11.9748 16.09 12.4041 16.0153 12.7681 15.866C13.1415 15.7073 13.4308 15.4693 13.6361 15.152C13.8415 14.8253 13.9441 14.4193 13.9441 13.934C13.9441 13.2807 13.7435 12.7813 13.3421 12.436C12.9408 12.0813 12.3061 11.904 11.4381 11.904C11.1768 11.904 10.8781 11.9273 10.5421 11.974C10.2061 12.0207 9.93547 12.0673 9.73014 12.114L9.11414 11.722L9.49214 7.004H14.5041V8.124H10.5421L10.3041 11.022C10.4628 10.994 10.6775 10.9613 10.9481 10.924C11.2188 10.8867 11.5175 10.868 11.8441 10.868Z" fill="white"/>
</svg>
