<svg width="24" height="24" viewBox="0 0 24 24" fill="none" xmlns="http://www.w3.org/2000/svg">
<rect width="24" height="24" rx="4" fill="#0075BA"/>
<path d="M8.95828 17H7.75428V10.014C7.75428 9.74333 7.75428 9.51467 7.75428 9.328C7.76361 9.14133 7.77295 8.96867 7.78228 8.81C7.79161 8.642 7.80095 8.46933 7.81028 8.292C7.66095 8.44133 7.52561 8.56733 7.40428 8.67C7.28295 8.77267 7.12895 8.90333 6.94228 9.062L5.87828 9.93L5.23428 9.104L7.93628 7.004H8.95828V17ZM19.728 14.732H18.272V17H17.082V14.732H12.294V13.682L16.998 6.948H18.272V13.626H19.728V14.732ZM17.082 10.476C17.082 10.2333 17.082 10.014 17.082 9.818C17.0913 9.61267 17.1007 9.42133 17.11 9.244C17.1193 9.06667 17.124 8.89867 17.124 8.74C17.1333 8.572 17.1427 8.41333 17.152 8.264H17.096C17.0213 8.44133 16.928 8.63267 16.816 8.838C16.704 9.04333 16.5967 9.216 16.494 9.356L13.498 13.626H17.082V10.476Z" fill="white"/>
</svg>
