<svg width="24" height="24" viewBox="0 0 24 24" fill="none" xmlns="http://www.w3.org/2000/svg">
<rect width="24" height="24" rx="4" fill="#D7A600"/>
<path d="M15.2741 17H8.66614V15.978L11.2841 13.332C11.7881 12.828 12.2128 12.38 12.5581 11.988C12.9035 11.596 13.1648 11.2133 13.3421 10.84C13.5195 10.4573 13.6081 10.042 13.6081 9.594C13.6081 9.04333 13.4448 8.628 13.1181 8.348C12.7915 8.05867 12.3668 7.914 11.8441 7.914C11.3588 7.914 10.9295 7.998 10.5561 8.166C10.1921 8.334 9.81881 8.56733 9.43614 8.866L8.77814 8.04C9.03947 7.816 9.32414 7.61533 9.63214 7.438C9.94947 7.26067 10.2901 7.12067 10.6541 7.018C11.0275 6.91533 11.4241 6.864 11.8441 6.864C12.4695 6.864 13.0061 6.97133 13.4541 7.186C13.9021 7.40067 14.2475 7.70867 14.4901 8.11C14.7421 8.502 14.8681 8.97333 14.8681 9.524C14.8681 9.916 14.8075 10.2893 14.6861 10.644C14.5648 10.9893 14.3921 11.33 14.1681 11.666C13.9441 12.002 13.6735 12.3427 13.3561 12.688C13.0388 13.0333 12.6888 13.3927 12.3061 13.766L10.2201 15.824V15.88H15.2741V17Z" fill="white"/>
</svg>
