<svg width="24" height="24" viewBox="0 0 24 24" fill="none" xmlns="http://www.w3.org/2000/svg">
<rect width="24" height="24" rx="4" fill="#28A838"/>
<path d="M8.95828 17H7.75428V10.014C7.75428 9.74333 7.75428 9.51467 7.75428 9.328C7.76361 9.14133 7.77295 8.96867 7.78228 8.81C7.79161 8.642 7.80095 8.46933 7.81028 8.292C7.66095 8.44133 7.52561 8.56733 7.40428 8.67C7.28295 8.77267 7.12895 8.90333 6.94228 9.062L5.87828 9.93L5.23428 9.104L7.93628 7.004H8.95828V17ZM15.85 10.868C16.5313 10.868 17.124 10.9847 17.628 11.218C18.132 11.4513 18.5193 11.7873 18.79 12.226C19.07 12.6553 19.21 13.1827 19.21 13.808C19.21 14.4987 19.0607 15.096 18.762 15.6C18.4633 16.0947 18.034 16.4773 17.474 16.748C16.9233 17.0093 16.256 17.14 15.472 17.14C14.9587 17.14 14.4733 17.0933 14.016 17C13.568 16.9067 13.19 16.7713 12.882 16.594V15.432C13.218 15.6373 13.624 15.8007 14.1 15.922C14.5853 16.034 15.0473 16.09 15.486 16.09C15.9807 16.09 16.41 16.0153 16.774 15.866C17.1473 15.7073 17.4367 15.4693 17.642 15.152C17.8473 14.8253 17.95 14.4193 17.95 13.934C17.95 13.2807 17.7493 12.7813 17.348 12.436C16.9467 12.0813 16.312 11.904 15.444 11.904C15.1827 11.904 14.884 11.9273 14.548 11.974C14.212 12.0207 13.9413 12.0673 13.736 12.114L13.12 11.722L13.498 7.004H18.51V8.124H14.548L14.31 11.022C14.4687 10.994 14.6833 10.9613 14.954 10.924C15.2247 10.8867 15.5233 10.868 15.85 10.868Z" fill="white"/>
</svg>
