<svg width="24" height="24" viewBox="0 0 24 24" fill="none" xmlns="http://www.w3.org/2000/svg">
<rect width="24" height="24" rx="4" fill="#D39200"/>
<path d="M8.95828 17H7.75428V10.014C7.75428 9.74333 7.75428 9.51467 7.75428 9.328C7.76361 9.14133 7.77295 8.96867 7.78228 8.81C7.79161 8.642 7.80095 8.46933 7.81028 8.292C7.66095 8.44133 7.52561 8.56733 7.40428 8.67C7.28295 8.77267 7.12895 8.90333 6.94228 9.062L5.87828 9.93L5.23428 9.104L7.93628 7.004H8.95828V17ZM19.28 17H12.672V15.978L15.29 13.332C15.794 12.828 16.2187 12.38 16.564 11.988C16.9093 11.596 17.1707 11.2133 17.348 10.84C17.5253 10.4573 17.614 10.042 17.614 9.594C17.614 9.04333 17.4507 8.628 17.124 8.348C16.7973 8.05867 16.3727 7.914 15.85 7.914C15.3647 7.914 14.9353 7.998 14.562 8.166C14.198 8.334 13.8247 8.56733 13.442 8.866L12.784 8.04C13.0453 7.816 13.33 7.61533 13.638 7.438C13.9553 7.26067 14.296 7.12067 14.66 7.018C15.0333 6.91533 15.43 6.864 15.85 6.864C16.4753 6.864 17.012 6.97133 17.46 7.186C17.908 7.40067 18.2533 7.70867 18.496 8.11C18.748 8.502 18.874 8.97333 18.874 9.524C18.874 9.916 18.8133 10.2893 18.692 10.644C18.5707 10.9893 18.398 11.33 18.174 11.666C17.95 12.002 17.6793 12.3427 17.362 12.688C17.0447 13.0333 16.6947 13.3927 16.312 13.766L14.226 15.824V15.88H19.28V17Z" fill="white"/>
</svg>
